<?xml version="1.0" encoding="UTF-8" standalone="no"?>
<!-- Created with Inkscape (http://www.inkscape.org/) -->

<svg
   xmlns:dc="http://purl.org/dc/elements/1.1/"
   xmlns:cc="http://creativecommons.org/ns#"
   xmlns:rdf="http://www.w3.org/1999/02/22-rdf-syntax-ns#"
   xmlns:svg="http://www.w3.org/2000/svg"
   xmlns="http://www.w3.org/2000/svg"
   xmlns:sodipodi="http://sodipodi.sourceforge.net/DTD/sodipodi-0.dtd"
   xmlns:inkscape="http://www.inkscape.org/namespaces/inkscape"
   width="176.89308mm"
   height="176.89256mm"
   viewBox="0 0 176.89308 176.89256"
   version="1.1"
   id="svg8"
   inkscape:version="0.92.4 (5da689c313, 2019-01-14)"
   sodipodi:docname="cc.svg">
  <defs
     id="defs2" />
  <sodipodi:namedview
     id="base"
     pagecolor="#ffffff"
     bordercolor="#666666"
     borderopacity="1.0"
     inkscape:pageopacity="0.0"
     inkscape:pageshadow="2"
     inkscape:zoom="0.175"
     inkscape:cx="-1737.1868"
     inkscape:cy="-247.2583"
     inkscape:document-units="mm"
     inkscape:current-layer="layer1"
     showgrid="false"
     inkscape:window-width="1920"
     inkscape:window-height="1017"
     inkscape:window-x="-8"
     inkscape:window-y="-8"
     inkscape:window-maximized="1"
     fit-margin-top="0"
     fit-margin-left="0"
     fit-margin-right="0"
     fit-margin-bottom="0" />
  <metadata
     id="metadata5">
    <rdf:RDF>
      <cc:Work
         rdf:about="">
        <dc:format>image/svg+xml</dc:format>
        <dc:type
           rdf:resource="http://purl.org/dc/dcmitype/StillImage" />
        <dc:title />
      </cc:Work>
    </rdf:RDF>
  </metadata>
  <g
     inkscape:label="Capa 1"
     inkscape:groupmode="layer"
     id="layer1"
     transform="translate(-20.41064,-33.172651)">
    <text
       xml:space="preserve"
       style="font-style:normal;font-weight:normal;font-size:10.58333302px;line-height:1.25;font-family:sans-serif;letter-spacing:0px;word-spacing:0px;fill:#000000;fill-opacity:1;stroke:none;stroke-width:0.26458332"
       x="98.889725"
       y="107.77317"
       id="text822"><tspan
         sodipodi:role="line"
         id="tspan820"
         x="98.889725"
         y="117.42867"
         style="stroke-width:0.26458332" /></text>
    <path
       style="fill:#ffffff;fill-opacity:1;stroke:none;stroke-width:0.66145831;stroke-linejoin:round;stroke-miterlimit:4;stroke-dasharray:none;stroke-dashoffset:0;stroke-opacity:1"
       d="m 108.85692,33.172651 a 88.446426,88.446426 0 0 0 -88.44628,88.446279 88.446426,88.446426 0 0 0 88.44628,88.44628 88.446426,88.446426 0 0 0 88.4468,-88.44628 88.446426,88.446426 0 0 0 -88.4468,-88.446279 z m 0,24.497212 A 63.949233,63.949233 0 0 1 172.8065,121.61893 63.949233,63.949233 0 0 1 108.85692,185.56852 63.949233,63.949233 0 0 1 44.907853,121.61893 63.949233,63.949233 0 0 1 108.85692,57.669863 Z"
       id="path815"
       inkscape:connector-curvature="0" />
    <path
       style="fill:#ffffff;fill-opacity:1;stroke:none;stroke-width:0.31123951;stroke-linejoin:round;stroke-miterlimit:4;stroke-dasharray:none;stroke-dashoffset:0;stroke-opacity:1"
       d="m 106.42742,80.001909 a 41.617166,41.617166 0 0 0 -41.617023,41.617021 41.617166,41.617166 0 0 0 41.617023,41.61702 41.617166,41.617166 0 0 0 30.01501,-12.80431 l -8.17138,-8.17138 a 30.090371,30.090371 0 0 1 -21.84363,9.44908 30.090371,30.090371 0 0 1 -30.090411,-30.09041 30.090371,30.090371 0 0 1 30.090411,-30.090407 30.090371,30.090371 0 0 1 19.40369,7.093637 l 8.13605,-8.136048 A 41.617166,41.617166 0 0 0 106.42742,80.001909 Z"
       id="path824"
       inkscape:connector-curvature="0" />
  </g>
</svg>
