<?xml version="1.0" encoding="UTF-8" standalone="no"?>
<svg
   xmlns:dc="http://purl.org/dc/elements/1.1/"
   xmlns:cc="http://creativecommons.org/ns#"
   xmlns:rdf="http://www.w3.org/1999/02/22-rdf-syntax-ns#"
   xmlns:svg="http://www.w3.org/2000/svg"
   xmlns="http://www.w3.org/2000/svg"
   xmlns:xlink="http://www.w3.org/1999/xlink"
   id="svg8"
   version="1.1"
   viewBox="0 0 273.95303 312.36706"
   height="312.36707mm"
   width="273.95303mm">
  <defs
     id="defs2">
    <linearGradient
       id="linearGradient1284">
      <stop
         id="stop1280"
         offset="0"
         style="stop-color:#f50162;stop-opacity:1" />
      <stop
         id="stop1282"
         offset="1"
         style="stop-color:#4c164a;stop-opacity:1" />
    </linearGradient>
    <linearGradient
       id="linearGradient4654">
      <stop
         id="stop4650"
         offset="0"
         style="stop-color:#461749;stop-opacity:1" />
      <stop
         id="stop4652"
         offset="1"
         style="stop-color:#fa0063;stop-opacity:1" />
    </linearGradient>
    <linearGradient
       id="linearGradient4602">
      <stop
         style="stop-color:#461749;stop-opacity:1"
         offset="0"
         id="stop4598" />
      <stop
         style="stop-color:#30123c;stop-opacity:1"
         offset="1"
         id="stop4600" />
    </linearGradient>
    <linearGradient
       id="linearGradient934">
      <stop
         id="stop930"
         offset="0"
         style="stop-color:#008080;stop-opacity:1" />
      <stop
         id="stop932"
         offset="1"
         style="stop-color:#501850;stop-opacity:1" />
    </linearGradient>
    <linearGradient
       id="linearGradient921">
      <stop
         style="stop-color:#0b071e;stop-opacity:1"
         offset="0"
         id="stop917" />
      <stop
         style="stop-color:#cccccc;stop-opacity:1"
         offset="1"
         id="stop919" />
    </linearGradient>
    <linearGradient
       id="linearGradient913">
      <stop
         style="stop-color:#80236a;stop-opacity:1"
         offset="0"
         id="stop907" />
      <stop
         style="stop-color:#1e0e32;stop-opacity:1"
         offset="1"
         id="stop911" />
    </linearGradient>
    <linearGradient
       id="linearGradient903">
      <stop
         style="stop-color:#80226c;stop-opacity:1"
         offset="0"
         id="stop897" />
      <stop
         style="stop-color:#1d0d31;stop-opacity:1"
         offset="1"
         id="stop901" />
    </linearGradient>
    <linearGradient
       id="linearGradient880">
      <stop
         id="stop876"
         offset="0"
         style="stop-color:#83246e;stop-opacity:1" />
      <stop
         id="stop878"
         offset="1"
         style="stop-color:#1e0e32;stop-opacity:1" />
    </linearGradient>
    <linearGradient
       gradientUnits="userSpaceOnUse"
       y2="145.01833"
       x2="83.222862"
       y1="76.726402"
       x1="127.34"
       id="linearGradient882"
       xlink:href="#linearGradient880" />
    <linearGradient
       gradientUnits="userSpaceOnUse"
       y2="91.961678"
       x2="116.57858"
       y1="161.01157"
       x1="150.65979"
       id="linearGradient895"
       xlink:href="#linearGradient903" />
    <linearGradient
       gradientUnits="userSpaceOnUse"
       y2="146.37894"
       x2="136.75914"
       y1="147.50813"
       x1="69.947014"
       id="linearGradient905"
       xlink:href="#linearGradient913" />
    <linearGradient
       y2="187.25629"
       x2="149.56363"
       y1="81.517418"
       x1="93.452156"
       gradientUnits="userSpaceOnUse"
       id="linearGradient915"
       xlink:href="#linearGradient921" />
    <linearGradient
       gradientTransform="matrix(1.4057329,0,0,1.2876115,-48.965631,-26.565278)"
       y2="91.961678"
       x2="116.57858"
       y1="161.01157"
       x1="150.65979"
       gradientUnits="userSpaceOnUse"
       id="linearGradient942"
       xlink:href="#linearGradient903" />
    <linearGradient
       gradientTransform="matrix(1.4057329,0,0,1.2876115,-48.965631,-26.565278)"
       y2="145.01833"
       x2="83.222862"
       y1="76.726402"
       x1="127.34"
       gradientUnits="userSpaceOnUse"
       id="linearGradient948"
       xlink:href="#linearGradient880" />
    <linearGradient
       gradientTransform="matrix(0.26458334,0,0,0.26458334,307.25324,202.45513)"
       y2="389.96573"
       x2="415"
       y1="-17.034271"
       x1="14"
       gradientUnits="userSpaceOnUse"
       id="linearGradient1055"
       xlink:href="#linearGradient934" />
    <linearGradient
       id="linearGradient1141">
      <stop
         style="stop-color:#641d5a;stop-opacity:1"
         offset="0"
         id="stop1137" />
      <stop
         style="stop-color:#fa0063;stop-opacity:1"
         offset="1"
         id="stop1139" />
    </linearGradient>
    <linearGradient
       id="linearGradient1076">
      <stop
         id="stop1072"
         offset="0"
         style="stop-color:#126875;stop-opacity:1" />
      <stop
         id="stop1074"
         offset="1"
         style="stop-color:#381441;stop-opacity:1" />
    </linearGradient>
    <linearGradient
       y2="-270.26666"
       x2="911.57776"
       y1="-1091.5333"
       x1="242.71111"
       gradientUnits="userSpaceOnUse"
       id="linearGradient1080"
       xlink:href="#linearGradient1076" />
    <linearGradient
       y2="-678.06036"
       x2="634.2843"
       y1="-1056.4241"
       x1="105.93855"
       gradientUnits="userSpaceOnUse"
       id="linearGradient1135"
       xlink:href="#linearGradient1141" />
    <linearGradient
       y2="-605.1571"
       x2="623.58466"
       y1="-1105.6976"
       x1="169.45061"
       gradientUnits="userSpaceOnUse"
       id="linearGradient1105"
       xlink:href="#linearGradient4654" />
    <linearGradient
       y2="-605.1571"
       x2="623.58466"
       y1="-1105.6976"
       x1="169.45061"
       gradientUnits="userSpaceOnUse"
       id="linearGradient1107"
       xlink:href="#linearGradient4654" />
    <linearGradient
       y2="-605.1571"
       x2="623.58466"
       y1="-1105.6976"
       x1="169.45061"
       gradientUnits="userSpaceOnUse"
       id="linearGradient1109"
       xlink:href="#linearGradient4654" />
    <linearGradient
       y2="-662.09546"
       x2="674.19653"
       y1="-1136.7048"
       x1="166.94247"
       gradientUnits="userSpaceOnUse"
       id="linearGradient1111"
       xlink:href="#linearGradient4602" />
    <linearGradient
       y2="-662.09546"
       x2="674.19653"
       y1="-1136.7048"
       x1="166.94247"
       gradientUnits="userSpaceOnUse"
       id="linearGradient1113"
       xlink:href="#linearGradient4602" />
    <style
       type="text/css"
       id="style1236">
   <![CDATA[
    .fil2 {fill:none}
    .fil0 {fill:#424242}
    .fil1 {fill:#FFFFFE}
   ]]>
  </style>
    <linearGradient
       gradientTransform="matrix(0.13931956,0,0,0.13931956,-1669.0855,-512.42766)"
       y2="1624.0005"
       x2="1636.1317"
       y1="529.64935"
       x1="458.02921"
       gradientUnits="userSpaceOnUse"
       id="linearGradient1290"
       xlink:href="#linearGradient1284" />
  </defs>
  <metadata
     id="metadata5">
    <rdf:RDF>
      <cc:Work
         rdf:about="">
        <dc:format>image/svg+xml</dc:format>
        <dc:type
           rdf:resource="http://purl.org/dc/dcmitype/StillImage" />
        <dc:title></dc:title>
      </cc:Work>
    </rdf:RDF>
  </metadata>
  <g
     transform="translate(1664.7563,508.54688)"
     id="layer1">
    <text
       id="text822"
       y="107.77317"
       x="98.889725"
       style="font-style:normal;font-weight:normal;font-size:10.58333302px;line-height:1.25;font-family:sans-serif;letter-spacing:0px;word-spacing:0px;fill:#000000;fill-opacity:1;stroke:none;stroke-width:0.26458332"
       xml:space="preserve"><tspan
         style="stroke-width:0.26458332"
         y="117.42867"
         x="98.889725"
         id="tspan820" /></text>
    <g
       id="g1037">
      <g
         transform="matrix(0.47796057,0,0,0.47796057,-1713.2411,48.817896)"
         id="g1188">
        <g
           id="g1125"
           style="fill:url(#linearGradient1113);fill-opacity:1;stroke:none">
          <g
             style="fill:url(#linearGradient1111)"
             id="g4588">
            <g
               style="fill:url(#linearGradient1109);fill-opacity:1"
               id="g4646">
              <path
                 style="fill:url(#linearGradient1105);fill-opacity:1;stroke:none;stroke-width:0.91070002;stroke-linejoin:round;stroke-miterlimit:4;stroke-dasharray:none;stroke-dashoffset:0;stroke-opacity:1"
                 d="m 361.63788,-1166.1313 -259.78181,149.506 -0.41516,299.73061 53.63881,31.06731 0.38314,-276.71798 259.78181,-149.50564 205.72821,119.15727 0.032,-23.01257 z"
                 id="path1026" />
              <path
                 style="fill:url(#linearGradient1107);fill-opacity:1;stroke:none;stroke-width:0.91070002;stroke-linejoin:round;stroke-miterlimit:4;stroke-dasharray:none;stroke-dashoffset:0;stroke-opacity:1"
                 d="m 620.97288,-992.89373 -0.38313,276.71798 -259.78218,149.506 -205.72785,-119.15763 -0.032,23.01261 259.36665,150.22495 259.78218,-149.50565 0.41516,-299.73094 z"
                 id="path1028" />
            </g>
          </g>
        </g>
      </g>
      <path
         style="clip-rule:evenodd;fill:url(#linearGradient1290);fill-opacity:1;fill-rule:evenodd;stroke-width:0.13931955;image-rendering:optimizeQuality;shape-rendering:geometricPrecision;text-rendering:geometricPrecision"
         class="fil1"
         d="m -1572.9579,-319.69159 z m 78.2389,38.04079 c -9.9015,3.56318 -20.5746,5.50932 -31.7033,5.50932 -7.1827,0 -14.1754,-0.8114 -20.8941,-2.34304 0,-1.71362 -0.016,-3.34004 -0.037,-5.49682 -0.024,-2.5094 -0.054,-5.62748 -0.078,-9.20217 -26.8727,4.87859 -33.1464,-13.99437 -33.4039,-14.80647 -4.2759,-10.80835 -10.1564,-13.56391 -10.1735,-13.57214 l -0.2206,-0.12341 c -13.5442,-9.25615 1.5813,-9.06429 1.6241,-9.06412 h 0.104 c 10.5932,0.74558 16.2352,10.51282 16.5427,11.05863 3.2212,5.51639 7.183,8.23709 11.1196,9.36096 5.7101,1.63004 11.4684,-0.0189 14.8696,-1.42501 0.472,-2.7888 1.2491,-5.2003 2.219,-7.24304 0.6536,-1.37614 1.3968,-2.58986 2.1962,-3.64365 -10.262,-1.4561 -20.5461,-4.42921 -28.5798,-11.19207 -8.9138,-7.50385 -14.9553,-19.55741 -14.9553,-39.15911 h 0.01 c 8e-4,-5.48135 0.9497,-10.47482 2.6811,-14.98675 1.7159,-4.47216 4.203,-8.47881 7.2996,-12.02604 -0.5923,-1.68353 -1.4151,-4.61779 -1.675,-8.50217 -0.3175,-4.75074 0.2006,-10.94921 3.0114,-18.05595 l 0.065,-0.12967 c 0,-0.003 1.222,-1.04276 2.9468,-1.12997 1.1379,-0.0576 2.8553,0.002 5.1732,0.47078 4.5138,0.9126 11.4282,3.41574 20.9736,9.78847 3.7713,-1.0138 7.6637,-1.78423 11.612,-2.3154 4.2719,-0.57444 8.6218,-0.86916 12.9659,-0.88841 h 0.013 c 4.3392,0.0192 8.6842,0.31413 12.9534,0.88825 3.9501,0.53133 7.8461,1.30242 11.6244,2.31621 19.1882,-12.8139 28.0307,-9.98773 28.0569,-9.98017 l 0.773,0.22923 0.2977,0.75067 c 2.8217,7.11617 3.345,13.30871 3.0302,18.04941 -0.258,3.88356 -1.0777,6.81652 -1.6676,8.50152 3.095,3.53833 5.5743,7.54004 7.2863,12.01038 1.7351,4.53009 2.6813,9.53211 2.6813,15.00974 0,19.65604 -6.0505,31.70399 -14.9817,39.18099 -8.0397,6.73077 -18.3362,9.66522 -28.6201,11.09648 1.2026,1.57277 2.2835,3.50789 3.1277,5.81209 1.1359,3.10162 1.8481,6.87986 1.8481,11.3461 0,7.96904 -0.059,16.2604 -0.098,21.75029 -0.01,0.77536 -0.01,1.47504 -0.014,2.15611 z m -82.9446,-34.57229 c 0.7078,0.0725 1.2283,0.64849 1.1629,1.28629 -0.066,0.63764 -0.6921,1.0959 -1.3996,1.02335 -0.7078,-0.0725 -1.2283,-0.6485 -1.1629,-1.28613 0.066,-0.63781 0.6921,-1.09609 1.3996,-1.02351 z m 2.6685,6.8746 c 0.065,-0.63781 0.6919,-1.09607 1.3996,-1.02351 0.7076,0.0725 1.2282,0.6485 1.1627,1.28629 -0.065,0.63781 -0.6919,1.09608 -1.3997,1.02351 -0.7075,-0.0725 -1.228,-0.64849 -1.1626,-1.28629 z m -9.2454,-15.82796 c 0.7078,0.0725 1.2283,0.64849 1.1629,1.28613 -0.066,0.63781 -0.6921,1.09606 -1.3996,1.02351 -0.7078,-0.0726 -1.2283,-0.6485 -1.1629,-1.28613 0.066,-0.63781 0.6921,-1.09608 1.3996,-1.02351 z m 3.4203,3.81544 c 0.7077,0.0725 1.2282,0.64849 1.1628,1.28628 -0.066,0.63765 -0.6921,1.09608 -1.3996,1.02351 -0.7077,-0.0725 -1.2282,-0.64849 -1.1628,-1.28628 0.065,-0.63781 0.692,-1.09609 1.3996,-1.02351 z m 12.7076,15.02547 c 0.7076,0.0725 1.2281,0.64849 1.1629,1.28629 -0.066,0.63779 -0.6922,1.09607 -1.3998,1.0235 -0.7077,-0.0725 -1.2281,-0.64849 -1.1629,-1.28628 0.066,-0.63764 0.6921,-1.09608 1.3998,-1.02351 z m 7.8878,2.1492 c 0.7076,0.0725 1.2282,0.64849 1.1629,1.28613 -0.066,0.6378 -0.6921,1.09607 -1.3997,1.0235 -0.7077,-0.0725 -1.2282,-0.6485 -1.1628,-1.28629 0.066,-0.63763 0.6921,-1.09591 1.3996,-1.02334 z m 7.2898,-0.59271 c 0.7076,0.0725 1.228,0.64849 1.1627,1.2863 -0.065,0.63762 -0.6919,1.0959 -1.3997,1.02332 -0.7075,-0.0725 -1.2282,-0.64849 -1.1626,-1.28612 0.065,-0.63779 0.6919,-1.09607 1.3996,-1.0235 z"
         id="path1242" />
    </g>
  </g>
</svg>
