<?xml version="1.0" encoding="UTF-8" standalone="no"?>
<!-- Created with Inkscape (http://www.inkscape.org/) -->

<svg
   xmlns:dc="http://purl.org/dc/elements/1.1/"
   xmlns:cc="http://creativecommons.org/ns#"
   xmlns:rdf="http://www.w3.org/1999/02/22-rdf-syntax-ns#"
   xmlns:svg="http://www.w3.org/2000/svg"
   xmlns="http://www.w3.org/2000/svg"
   xmlns:xlink="http://www.w3.org/1999/xlink"
   xmlns:sodipodi="http://sodipodi.sourceforge.net/DTD/sodipodi-0.dtd"
   xmlns:inkscape="http://www.inkscape.org/namespaces/inkscape"
   width="212.95523mm"
   height="217.23128mm"
   viewBox="0 0 212.95523 217.23128"
   version="1.1"
   id="svg1394"
   inkscape:version="0.92.4 (5da689c313, 2019-01-14)"
   sodipodi:docname="dibujo-2.svg">
  <defs
     id="defs1388">
    <linearGradient
       inkscape:collect="always"
       xlink:href="#linearGradient1006"
       id="linearGradient1030"
       gradientUnits="userSpaceOnUse"
       gradientTransform="matrix(0.89480158,0.00708659,-0.01084451,0.88791817,0.31690188,48.074984)"
       x1="127.34"
       y1="76.726402"
       x2="83.222862"
       y2="145.01833" />
    <linearGradient
       inkscape:collect="always"
       id="linearGradient1006">
      <stop
         style="stop-color:#83246e;stop-opacity:1"
         offset="0"
         id="stop1002" />
      <stop
         style="stop-color:#fa0063;stop-opacity:1"
         offset="1"
         id="stop1004" />
    </linearGradient>
    <linearGradient
       inkscape:collect="always"
       xlink:href="#linearGradient1018"
       id="linearGradient1032"
       gradientUnits="userSpaceOnUse"
       gradientTransform="matrix(0.89480158,0.00708659,-0.01084451,0.88791817,0.31690188,48.074984)"
       x1="69.947014"
       y1="147.50813"
       x2="136.75914"
       y2="146.37894" />
    <linearGradient
       id="linearGradient1018"
       inkscape:collect="always">
      <stop
         id="stop1014"
         offset="0"
         style="stop-color:#80236a;stop-opacity:1" />
      <stop
         id="stop1016"
         offset="1"
         style="stop-color:#f30161;stop-opacity:1" />
    </linearGradient>
    <linearGradient
       inkscape:collect="always"
       xlink:href="#linearGradient1012"
       id="linearGradient1034"
       gradientUnits="userSpaceOnUse"
       gradientTransform="matrix(0.89480158,0.00708659,-0.01084451,0.88791817,0.31690188,48.074984)"
       x1="150.65979"
       y1="161.01157"
       x2="116.57858"
       y2="91.961678" />
    <linearGradient
       id="linearGradient1012"
       inkscape:collect="always">
      <stop
         id="stop1008"
         offset="0"
         style="stop-color:#f80062;stop-opacity:1" />
      <stop
         id="stop1010"
         offset="1"
         style="stop-color:#1d0d31;stop-opacity:1" />
    </linearGradient>
    <linearGradient
       inkscape:collect="always"
       xlink:href="#linearGradient980"
       id="linearGradient983"
       gradientUnits="userSpaceOnUse"
       gradientTransform="matrix(0.04564358,0,0,0.04564358,101.62097,79.394918)"
       x1="-70.234726"
       y1="-17.034271"
       x2="576.44989"
       y2="526.84717" />
    <linearGradient
       inkscape:collect="always"
       id="linearGradient980">
      <stop
         style="stop-color:#2c113a;stop-opacity:1"
         offset="0"
         id="stop976" />
      <stop
         style="stop-color:#fa0063;stop-opacity:1"
         offset="1"
         id="stop978" />
    </linearGradient>
  </defs>
  <sodipodi:namedview
     id="base"
     pagecolor="#ffffff"
     bordercolor="#666666"
     borderopacity="1.0"
     inkscape:pageopacity="0.0"
     inkscape:pageshadow="2"
     inkscape:zoom="0.35"
     inkscape:cx="-843.05448"
     inkscape:cy="364.80149"
     inkscape:document-units="mm"
     inkscape:current-layer="layer1"
     showgrid="false"
     fit-margin-top="0"
     fit-margin-left="0"
     fit-margin-right="0"
     fit-margin-bottom="0"
     inkscape:window-width="1920"
     inkscape:window-height="1017"
     inkscape:window-x="-8"
     inkscape:window-y="-8"
     inkscape:window-maximized="1" />
  <metadata
     id="metadata1391">
    <rdf:RDF>
      <cc:Work
         rdf:about="">
        <dc:format>image/svg+xml</dc:format>
        <dc:type
           rdf:resource="http://purl.org/dc/dcmitype/StillImage" />
        <dc:title></dc:title>
      </cc:Work>
    </rdf:RDF>
  </metadata>
  <g
     inkscape:label="Capa 1"
     inkscape:groupmode="layer"
     id="layer1"
     transform="translate(6.3733832,-28.122447)">
    <g
       id="g1028"
       transform="matrix(9.2948255,0,0,9.2948255,-950.50495,-707.49118)">
      <path
         style="fill:url(#linearGradient1030);fill-opacity:1;stroke:none;stroke-width:1.32612908;stroke-linecap:butt;stroke-linejoin:miter;stroke-miterlimit:4;stroke-dasharray:none;stroke-opacity:1"
         d="m 73.331057,162.4268 -3.737966,8.11907 15.342706,4.04522 c 0.755716,-3.04115 13.007317,-28.70234 15.880263,-31.1431 6.7207,-6.06992 14.2037,-3.50874 20.61503,3.9256 -2.36959,-5.57752 -5.71046,-12.80969 -7.82247,-16.0365 -1.92776,-2.94531 -7.04392,-8.4274 -11.93886,-8.4355 -4.906624,-0.008 -9.279165,4.39726 -12.066076,8.41587 -4.67853,6.74624 -16.272627,31.10934 -16.272627,31.10934 z"
         id="path832"
         inkscape:connector-curvature="0"
         sodipodi:nodetypes="cccccsasc"
         transform="matrix(0.1821291,0,0,0.1821291,93.115847,60.975327)" />
      <path
         sodipodi:nodetypes="ccccccc"
         inkscape:connector-curvature="0"
         id="path894"
         d="m 115.771,186.89945 -5.4667,-13.37953 -25.177927,0.009 c -7.471356,-0.46201 -11.571318,-2.48725 -11.795316,-11.10173 -2.464105,6.28287 -9.24875,16.47029 -5.849436,20.93121 3.55178,4.06897 9.894264,3.12315 12.835606,3.25239 z"
         style="fill:url(#linearGradient1032);fill-opacity:1;stroke:none;stroke-width:1.32612908;stroke-linecap:butt;stroke-linejoin:miter;stroke-miterlimit:4;stroke-dasharray:none;stroke-opacity:1"
         transform="matrix(0.1821291,0,0,0.1821291,93.115847,60.975327)" />
      <path
         sodipodi:nodetypes="ccccccccc"
         inkscape:connector-curvature="0"
         id="path834"
         d="m 121.38936,147.30856 17.81328,39.78726 -16.67802,-0.11512 -8.18287,-19.28903 -17.775795,-0.14078 4.274625,-9.37015 9.2564,-0.22038 c -6.13143,-13.41713 -8.00758,-14.47866 -9.47324,-14.34828 4.7023,-7.85454 10.67771,-10.4971 20.76562,3.69649 z"
         style="fill:url(#linearGradient1034);fill-opacity:1;stroke:none;stroke-width:1.32612908;stroke-linecap:butt;stroke-linejoin:miter;stroke-miterlimit:4;stroke-dasharray:none;stroke-opacity:1"
         transform="matrix(0.1821291,0,0,0.1821291,93.115847,60.975327)" />
      <path
         style="fill:#fa0063;fill-opacity:1;stroke:none;stroke-width:1.1931951;stroke-linejoin:round;stroke-miterlimit:4.0999999;stroke-dasharray:none;stroke-dashoffset:0;stroke-opacity:1"
         d="m 121.06883,91.554558 -0.49795,0.766587 3.00216,1.732598 10e-4,3.59919 -3.11667,1.800232 -3.11728,-1.798656 v -0.357343 l -0.66655,1.026724 3.78415,2.18336 4.02951,-2.32743 -0.001,-4.653282 z"
         id="path1043"
         inkscape:connector-curvature="0" />
      <path
         sodipodi:nodetypes="ccccccccccccccccc"
         inkscape:connector-curvature="0"
         d="m 111.69474,79.142274 -10.1187,5.845141 0.003,11.685647 10.12146,5.840418 10.11861,-5.845232 -0.003,-11.685558 z m 1.06856,3.263569 6.76047,3.901045 0.002,9.038231 -7.82628,4.521032 -7.00746,-4.043526 c -0.84736,-0.643315 -0.84198,-0.630139 -0.82134,-1.746044 l -0.002,-7.766037 6.75931,-3.90456 c 0.80885,-0.489098 1.22574,-0.486745 2.13498,-1.47e-4 z"
         style="fill:url(#linearGradient983);fill-opacity:1;stroke:none;stroke-width:2.99638939;stroke-linejoin:round;stroke-miterlimit:4.0999999;stroke-dasharray:none;stroke-dashoffset:0;stroke-opacity:1"
         id="path925" />
    </g>
  </g>
</svg>
